STARTFONT 2.1
COMMENT
COMMENT Converted from OpenType font "novamono.ttf" by "otf2bdf 3.0".
COMMENT
FONT -FreeType-NovaMono-Medium-R-Normal--64-640-72-72-P-158-ISO10646-1
SIZE 64 72 72
FONTBOUNDINGBOX 204 52 0 -10
STARTPROPERTIES 19
FOUNDRY "FreeType"
FAMILY_NAME "NovaMono"
WEIGHT_NAME "Medium"
SLANT "R"
SETWIDTH_NAME "Normal"
ADD_STYLE_NAME ""
PIXEL_SIZE 64
POINT_SIZE 640
RESOLUTION_X 72
RESOLUTION_Y 72
SPACING "P"
AVERAGE_WIDTH 158
CHARSET_REGISTRY "ISO10646"
CHARSET_ENCODING "1"
FONT_ASCENT 42
FONT_DESCENT 10
COPYRIGHT "Copyright fontcollector 2009  NovaMono is based on PortraitTextMono by fontcollector (http://fontstruct.com/fontstructors/fontcollector), which is based on PortraitMono by fontcollector (http://fontstruct.com/fontstructors/fontcollector)"
_OTF_FONTFILE "novamono.ttf"
_OTF_PSNAME "NovaMono"
ENDPROPERTIES
CHARS 195
STARTCHAR 0000
ENCODING 0
SWIDTH 281 0
DWIDTH 18 0
BBX 0 0 0 0
BITMAP
ENDCHAR
STARTCHAR 000D
ENCODING 13
SWIDTH 0 0
DWIDTH 0 0
BBX 0 0 0 0
BITMAP
ENDCHAR
STARTCHAR 0020
ENCODING 32
SWIDTH 281 0
DWIDTH 18 0
BBX 0 0 0 0
BITMAP
ENDCHAR
STARTCHAR 0021
ENCODING 33
SWIDTH 281 0
DWIDTH 18 0
BBX 4 28 6 0
BITMAP
F0
F0
F0
F0
F0
F0
F0
F0
F0
F0
F0
F0
F0
F0
F0
F0
F0
F0
F0
F0
00
00
00
00
F0
F0
F0
F0
ENDCHAR
STARTCHAR 0022
ENCODING 34
SWIDTH 281 0
DWIDTH 18 0
BBX 10 10 2 18
BITMAP
F3C0
F3C0
F3C0
F3C0
30C0
6180
6180
C300
C300
8200
ENDCHAR
STARTCHAR 0023
ENCODING 35
SWIDTH 281 0
DWIDTH 18 0
BBX 16 16 0 12
BITMAP
3C3C
3C3C
FFFF
FFFF
FFFF
FFFF
3C3C
3C3C
3C3C
3C3C
FFFF
FFFF
FFFF
FFFF
3C3C
3C3C
ENDCHAR
STARTCHAR 0024
ENCODING 36
SWIDTH 281 0
DWIDTH 18 0
BBX 16 36 0 -4
BITMAP
03C0
03C0
03C0
03C0
1FF8
3FFC
7FFE
FFFF
FFFF
FBDF
F3CF
F3CF
F3C0
F3C0
FBC0
FFC0
FFF8
7FFC
3FFE
1FFF
03FF
03DF
03CF
03CF
F3CF
F3CF
FBDF
FFFF
FFFF
7FFE
3FFC
1FF8
03C0
03C0
03C0
03C0
ENDCHAR
STARTCHAR 0025
ENCODING 37
SWIDTH 281 0
DWIDTH 18 0
BBX 16 28 0 0
BITMAP
7E0F
FF0F
FF0F
E71E
E71E
FF3C
FF3C
7E78
0078
00F0
00F0
01E0
01E0
03C0
03C0
0780
0780
0F00
0F00
1E00
1E7E
3CFF
3CFF
78E7
78E7
F0FF
F0FF
F07E
ENDCHAR
STARTCHAR 0026
ENCODING 38
SWIDTH 281 0
DWIDTH 18 0
BBX 16 28 0 0
BITMAP
1F80
3FC0
3FC0
7FE0
79E0
79E0
79E0
3FC0
3FC0
1F80
1F80
0F00
0F0F
1F9E
1F9E
3FFC
3FFC
79F8
79F8
F0F0
F0F0
F1F8
F1F8
7BFC
7FFC
3F9E
3F9E
1F0F
ENDCHAR
STARTCHAR 0027
ENCODING 39
SWIDTH 281 0
DWIDTH 18 0
BBX 4 10 6 18
BITMAP
F0
F0
F0
F0
30
60
60
C0
C0
80
ENDCHAR
STARTCHAR 0028
ENCODING 40
SWIDTH 281 0
DWIDTH 18 0
BBX 8 36 4 -4
BITMAP
1F
3F
7F
FF
FC
F8
F0
F0
F0
F0
F0
F0
F0
F0
F0
F0
F0
F0
F0
F0
F0
F0
F0
F0
F0
F0
F0
F0
F0
F0
F8
FC
FF
7F
3F
1F
ENDCHAR
STARTCHAR 0029
ENCODING 41
SWIDTH 281 0
DWIDTH 18 0
BBX 8 36 4 -4
BITMAP
F8
FC
FE
FF
3F
1F
0F
0F
0F
0F
0F
0F
0F
0F
0F
0F
0F
0F
0F
0F
0F
0F
0F
0F
0F
0F
0F
0F
0F
0F
1F
3F
FF
FE
FC
F8
ENDCHAR
STARTCHAR 002A
ENCODING 42
SWIDTH 281 0
DWIDTH 18 0
BBX 16 16 0 12
BITMAP
0100
0180
0180
1BD8
1FF8
0FF0
1FF8
7FFE
FFFF
1FF8
0FF0
1FF8
1BD8
0180
0180
0100
ENDCHAR
STARTCHAR 002B
ENCODING 43
SWIDTH 281 0
DWIDTH 18 0
BBX 16 16 0 6
BITMAP
03C0
03C0
03C0
03C0
03C0
03C0
FFFF
FFFF
FFFF
FFFF
03C0
03C0
03C0
03C0
03C0
03C0
ENDCHAR
STARTCHAR 002C
ENCODING 44
SWIDTH 281 0
DWIDTH 18 0
BBX 4 10 6 -6
BITMAP
F0
F0
F0
F0
30
60
60
C0
C0
80
ENDCHAR
STARTCHAR 002D
ENCODING 45
SWIDTH 281 0
DWIDTH 18 0
BBX 16 4 0 12
BITMAP
FFFF
FFFF
FFFF
FFFF
ENDCHAR
STARTCHAR 002E
ENCODING 46
SWIDTH 281 0
DWIDTH 18 0
BBX 4 4 6 0
BITMAP
F0
F0
F0
F0
ENDCHAR
STARTCHAR 002F
ENCODING 47
SWIDTH 281 0
DWIDTH 18 0
BBX 16 28 0 0
BITMAP
000F
000F
000F
001E
001E
003C
003C
0078
0078
00F0
00F0
01E0
01E0
03C0
03C0
0780
0780
0F00
0F00
1E00
1E00
3C00
3C00
7800
7800
F000
F000
F000
ENDCHAR
STARTCHAR 0030
ENCODING 48
SWIDTH 281 0
DWIDTH 18 0
BBX 16 28 0 0
BITMAP
1FF8
3FFC
7FFE
FFFF
FC3F
F81F
F00F
F00F
F00F
F00F
F00F
F00F
F3CF
F3CF
F3CF
F3CF
F00F
F00F
F00F
F00F
F00F
F00F
F81F
FC3F
FFFF
7FFE
3FFC
1FF8
ENDCHAR
STARTCHAR 0031
ENCODING 49
SWIDTH 281 0
DWIDTH 18 0
BBX 16 28 0 0
BITMAP
07C0
0FC0
1FC0
3FC0
3FC0
3FC0
3FC0
3BC0
33C0
23C0
03C0
03C0
03C0
03C0
03C0
03C0
03C0
03C0
03C0
03C0
03C0
03C0
03C0
03C0
FFFF
FFFF
FFFF
FFFF
ENDCHAR
STARTCHAR 0032
ENCODING 50
SWIDTH 281 0
DWIDTH 18 0
BBX 16 28 0 0
BITMAP
1FF8
3FFC
7FFE
FFFF
FC3F
F81F
F00F
F00F
000F
000F
001F
003F
007F
00FE
01FC
03F8
07F0
0FE0
1FC0
3F80
7F00
FE00
FC00
F800
FFFF
FFFF
FFFF
FFFF
ENDCHAR
STARTCHAR 0033
ENCODING 51
SWIDTH 281 0
DWIDTH 18 0
BBX 16 28 0 0
BITMAP
1FF8
3FFC
7FFE
FFFF
FC3F
F81F
F00F
F00F
000F
000F
001F
003F
03FF
03FE
03FE
03FF
003F
001F
000F
000F
F00F
F00F
F81F
FC3F
FFFF
7FFE
3FFC
1FF8
ENDCHAR
STARTCHAR 0034
ENCODING 52
SWIDTH 281 0
DWIDTH 18 0
BBX 16 28 0 0
BITMAP
00F8
01F8
01F8
03F8
03F8
07F8
07F8
0F78
0F78
1E78
1E78
3C78
3C78
7878
7878
F078
FFFF
FFFF
FFFF
FFFF
0078
0078
0078
0078
0078
0078
0078
0078
ENDCHAR
STARTCHAR 0035
ENCODING 53
SWIDTH 281 0
DWIDTH 18 0
BBX 16 28 0 0
BITMAP
FFFF
FFFF
FFFF
FFFF
F000
F000
F000
F000
F000
F000
F7F8
FFFC
FFFE
FFFF
FC3F
F81F
000F
000F
000F
000F
F00F
F00F
F81F
FC3F
FFFF
7FFE
3FFC
1FF8
ENDCHAR
STARTCHAR 0036
ENCODING 54
SWIDTH 281 0
DWIDTH 18 0
BBX 16 28 0 0
BITMAP
1FF8
3FFC
7FFE
FFFF
FC3F
F81F
F00F
F000
F000
F000
F7F8
FFFC
FFFE
FFFF
FC3F
F81F
F00F
F00F
F00F
F00F
F00F
F00F
F81F
FC3F
FFFF
7FFE
3FFC
1FF8
ENDCHAR
STARTCHAR 0037
ENCODING 55
SWIDTH 281 0
DWIDTH 18 0
BBX 16 28 0 0
BITMAP
FFFF
FFFF
FFFF
FFFF
000F
001E
001E
003C
003C
0078
0078
00F0
00F0
01E0
01E0
03C0
03C0
03C0
03C0
03C0
03C0
03C0
03C0
03C0
03C0
03C0
03C0
03C0
ENDCHAR
STARTCHAR 0038
ENCODING 56
SWIDTH 281 0
DWIDTH 18 0
BBX 16 28 0 0
BITMAP
1FF8
3FFC
7FFE
FFFF
FC3F
F81F
F81F
FC3F
FE7F
7FFE
3FFC
1FF8
0FF0
0FF0
1FF8
3FFC
7FFE
FE7F
FC3F
F81F
F00F
F00F
F81F
FC3F
FFFF
7FFE
3FFC
1FF8
ENDCHAR
STARTCHAR 0039
ENCODING 57
SWIDTH 281 0
DWIDTH 18 0
BBX 16 28 0 0
BITMAP
1FF8
3FFC
7FFE
FFFF
FC3F
F81F
F00F
F00F
F00F
F00F
F00F
F00F
F81F
FC3F
FFFF
7FFF
3FFF
1FEF
000F
000F
000F
F00F
F81F
FC3F
FFFF
7FFE
3FFC
1FF8
ENDCHAR
STARTCHAR 003A
ENCODING 58
SWIDTH 281 0
DWIDTH 18 0
BBX 4 16 6 0
BITMAP
F0
F0
F0
F0
00
00
00
00
00
00
00
00
F0
F0
F0
F0
ENDCHAR
STARTCHAR 003B
ENCODING 59
SWIDTH 281 0
DWIDTH 18 0
BBX 4 22 6 -6
BITMAP
F0
F0
F0
F0
00
00
00
00
00
00
00
00
F0
F0
F0
F0
30
60
60
C0
C0
80
ENDCHAR
STARTCHAR 003C
ENCODING 60
SWIDTH 281 0
DWIDTH 18 0
BBX 16 16 0 6
BITMAP
0001
0007
001F
007F
01FE
07F8
1FE0
7F80
FF80
1FE0
07F8
01FE
007F
001F
0007
0001
ENDCHAR
STARTCHAR 003D
ENCODING 61
SWIDTH 281 0
DWIDTH 18 0
BBX 16 12 0 8
BITMAP
FFFF
FFFF
FFFF
FFFF
0000
0000
0000
0000
FFFF
FFFF
FFFF
FFFF
ENDCHAR
STARTCHAR 003E
ENCODING 62
SWIDTH 281 0
DWIDTH 18 0
BBX 16 16 0 6
BITMAP
8000
E000
F800
FE00
7F80
1FE0
07F8
01FE
01FF
07F8
1FE0
7F80
FE00
F800
E000
8000
ENDCHAR
STARTCHAR 003F
ENCODING 63
SWIDTH 281 0
DWIDTH 18 0
BBX 16 28 0 0
BITMAP
1FF8
3FFC
7FFE
FFFF
FC3F
F81F
F00F
F00F
001F
003F
007F
00FE
01FC
03F8
03F0
03E0
03C0
03C0
03C0
03C0
0000
0000
0000
0000
03C0
03C0
03C0
03C0
ENDCHAR
STARTCHAR 0040
ENCODING 64
SWIDTH 281 0
DWIDTH 18 0
BBX 16 26 0 -2
BITMAP
3FFC
7FFE
6006
C003
C33B
C7BB
C7BB
CFFB
CFFB
DCFB
DCFB
DC7B
DC7B
DC7B
DC7B
DCFB
DCFB
CFFE
CFFE
C7BC
C7BC
C338
C000
6000
7FFC
3FFC
ENDCHAR
STARTCHAR 0041
ENCODING 65
SWIDTH 281 0
DWIDTH 18 0
BBX 16 28 0 0
BITMAP
1FF8
3FFC
7FFE
FFFF
FC3F
F81F
F00F
F00F
F00F
F00F
F00F
F00F
FFFF
FFFF
FFFF
FFFF
F00F
F00F
F00F
F00F
F00F
F00F
F00F
F00F
F00F
F00F
F00F
F00F
ENDCHAR
STARTCHAR 0042
ENCODING 66
SWIDTH 281 0
DWIDTH 18 0
BBX 16 28 0 0
BITMAP
FFF8
FFFC
FFFE
FFFF
F03F
F01F
F00F
F00F
F00F
F00F
F01F
F03F
FFFF
FFFE
FFFE
FFFF
F03F
F01F
F00F
F00F
F00F
F00F
F01F
F03F
FFFF
FFFE
FFFC
FFF8
ENDCHAR
STARTCHAR 0043
ENCODING 67
SWIDTH 281 0
DWIDTH 18 0
BBX 16 28 0 0
BITMAP
1FF8
3FFC
7FFE
FFFF
FC3F
F81F
F00F
F00F
F000
F000
F000
F000
F000
F000
F000
F000
F000
F000
F000
F000
F00F
F00F
F81F
FC3F
FFFF
7FFE
3FFC
1FF8
ENDCHAR
STARTCHAR 0044
ENCODING 68
SWIDTH 281 0
DWIDTH 18 0
BBX 16 28 0 0
BITMAP
FFE0
FFF0
FFF8
FFFC
F0FE
F07F
F03F
F01F
F00F
F00F
F00F
F00F
F00F
F00F
F00F
F00F
F00F
F00F
F00F
F00F
F01F
F03F
F07F
F0FE
FFFC
FFF8
FFF0
FFE0
ENDCHAR
STARTCHAR 0045
ENCODING 69
SWIDTH 281 0
DWIDTH 18 0
BBX 16 28 0 0
BITMAP
FFFF
FFFF
FFFF
FFFF
F000
F000
F000
F000
F000
F000
F000
F000
FFF0
FFF0
FFF0
FFF0
F000
F000
F000
F000
F000
F000
F000
F000
FFFF
FFFF
FFFF
FFFF
ENDCHAR
STARTCHAR 0046
ENCODING 70
SWIDTH 281 0
DWIDTH 18 0
BBX 16 28 0 0
BITMAP
FFFF
FFFF
FFFF
FFFF
F000
F000
F000
F000
F000
F000
F000
F000
FFF0
FFF0
FFF0
FFF0
F000
F000
F000
F000
F000
F000
F000
F000
F000
F000
F000
F000
ENDCHAR
STARTCHAR 0047
ENCODING 71
SWIDTH 281 0
DWIDTH 18 0
BBX 16 28 0 0
BITMAP
1FF8
3FFC
7FFE
FFFF
FC3F
F81F
F00F
F00F
F000
F000
F000
F000
F0FF
F0FF
F0FF
F0FF
F00F
F00F
F00F
F00F
F00F
F00F
F81F
FC3F
FFFF
7FFE
3FFC
1FF8
ENDCHAR
STARTCHAR 0048
ENCODING 72
SWIDTH 281 0
DWIDTH 18 0
BBX 16 28 0 0
BITMAP
F00F
F00F
F00F
F00F
F00F
F00F
F00F
F00F
F00F
F00F
F00F
F00F
FFFF
FFFF
FFFF
FFFF
F00F
F00F
F00F
F00F
F00F
F00F
F00F
F00F
F00F
F00F
F00F
F00F
ENDCHAR
STARTCHAR 0049
ENCODING 73
SWIDTH 281 0
DWIDTH 18 0
BBX 16 28 0 0
BITMAP
FFFF
FFFF
FFFF
FFFF
03C0
03C0
03C0
03C0
03C0
03C0
03C0
03C0
03C0
03C0
03C0
03C0
03C0
03C0
03C0
03C0
03C0
03C0
03C0
03C0
FFFF
FFFF
FFFF
FFFF
ENDCHAR
STARTCHAR 004A
ENCODING 74
SWIDTH 281 0
DWIDTH 18 0
BBX 16 28 0 0
BITMAP
00FF
00FF
00FF
00FF
000F
000F
000F
000F
000F
000F
000F
000F
000F
000F
000F
000F
000F
000F
000F
000F
F00F
F00F
F81F
FC3F
FFFF
7FFE
3FFC
1FF8
ENDCHAR
STARTCHAR 004B
ENCODING 75
SWIDTH 281 0
DWIDTH 18 0
BBX 16 28 0 0
BITMAP
F00F
F00F
F00F
F00F
F00F
F00F
F00F
F00F
F00F
F01F
F07F
F1FE
F7F8
FFE0
FFE0
FFF8
F9FE
F07F
F01F
F00F
F00F
F00F
F00F
F00F
F00F
F00F
F00F
F00F
ENDCHAR
STARTCHAR 004C
ENCODING 76
SWIDTH 281 0
DWIDTH 18 0
BBX 16 28 0 0
BITMAP
F000
F000
F000
F000
F000
F000
F000
F000
F000
F000
F000
F000
F000
F000
F000
F000
F000
F000
F000
F000
F000
F000
F000
F000
FFFF
FFFF
FFFF
FFFF
ENDCHAR
STARTCHAR 004D
ENCODING 77
SWIDTH 281 0
DWIDTH 18 0
BBX 16 28 0 0
BITMAP
F00F
F81F
F81F
FC3F
FC3F
FE7F
FE7F
FFFF
FFFF
F7EF
F7EF
F3CF
F3CF
F18F
F18F
F10F
F00F
F00F
F00F
F00F
F00F
F00F
F00F
F00F
F00F
F00F
F00F
F00F
ENDCHAR
STARTCHAR 004E
ENCODING 78
SWIDTH 281 0
DWIDTH 18 0
BBX 16 28 0 0
BITMAP
E00F
F00F
F00F
F80F
F80F
FC0F
FC0F
FE0F
FE0F
FF0F
FF0F
F78F
F78F
F3CF
F3CF
F1EF
F1EF
F0FF
F0FF
F07F
F07F
F03F
F03F
F01F
F01F
F00F
F00F
F007
ENDCHAR
STARTCHAR 004F
ENCODING 79
SWIDTH 281 0
DWIDTH 18 0
BBX 16 28 0 0
BITMAP
1FF8
3FFC
7FFE
FFFF
FC3F
F81F
F00F
F00F
F00F
F00F
F00F
F00F
F00F
F00F
F00F
F00F
F00F
F00F
F00F
F00F
F00F
F00F
F81F
FC3F
FFFF
7FFE
3FFC
1FF8
ENDCHAR
STARTCHAR 0050
ENCODING 80
SWIDTH 281 0
DWIDTH 18 0
BBX 16 28 0 0
BITMAP
FFF8
FFFC
FFFE
FFFF
F03F
F01F
F00F
F00F
F00F
F00F
F01F
F03F
FFFF
FFFE
FFFC
FFF8
F000
F000
F000
F000
F000
F000
F000
F000
F000
F000
F000
F000
ENDCHAR
STARTCHAR 0051
ENCODING 81
SWIDTH 281 0
DWIDTH 18 0
BBX 16 34 0 -6
BITMAP
1FF8
3FFC
7FFE
FFFF
FC3F
F81F
F00F
F00F
F00F
F00F
F00F
F00F
F00F
F00F
F00F
F00F
F00F
F00F
F00F
F00F
F00F
F00F
F81F
FC3F
FFFF
7FFE
3FFC
1FF8
03C0
03E0
03FC
03FC
03FC
01FC
ENDCHAR
STARTCHAR 0052
ENCODING 82
SWIDTH 281 0
DWIDTH 18 0
BBX 16 28 0 0
BITMAP
FFF8
FFFC
FFFE
FFFF
F03F
F01F
F00F
F00F
F00F
F00F
F01F
F03F
FFFF
FFFE
FFFC
FFF8
F0F0
F078
F078
F03C
F03C
F01E
F01E
F00F
F00F
F00F
F00F
F00F
ENDCHAR
STARTCHAR 0053
ENCODING 83
SWIDTH 281 0
DWIDTH 18 0
BBX 16 28 0 0
BITMAP
1FF8
3FFC
7FFE
FFFF
FC3F
F81F
F00F
F00F
F000
F000
F800
FC00
FFF8
7FFC
3FFE
1FFF
003F
001F
000F
000F
F00F
F00F
F81F
FC3F
FFFF
7FFE
3FFC
1FF8
ENDCHAR
STARTCHAR 0054
ENCODING 84
SWIDTH 281 0
DWIDTH 18 0
BBX 16 28 0 0
BITMAP
FFFF
FFFF
FFFF
FFFF
03C0
03C0
03C0
03C0
03C0
03C0
03C0
03C0
03C0
03C0
03C0
03C0
03C0
03C0
03C0
03C0
03C0
03C0
03C0
03C0
03C0
03C0
03C0
03C0
ENDCHAR
STARTCHAR 0055
ENCODING 85
SWIDTH 281 0
DWIDTH 18 0
BBX 16 28 0 0
BITMAP
F00F
F00F
F00F
F00F
F00F
F00F
F00F
F00F
F00F
F00F
F00F
F00F
F00F
F00F
F00F
F00F
F00F
F00F
F00F
F00F
F00F
F00F
F81F
FC3F
FFFF
7FFE
3FFC
1FF8
ENDCHAR
STARTCHAR 0056
ENCODING 86
SWIDTH 281 0
DWIDTH 18 0
BBX 16 28 0 0
BITMAP
F00F
F00F
F00F
F00F
F00F
F00F
F00F
F00F
F00F
F00F
F00F
F00F
F00F
F00F
F00F
F00F
F00F
781E
781E
3C3C
3C3C
1E78
1E78
0FF0
0FF0
07E0
07E0
03C0
ENDCHAR
STARTCHAR 0057
ENCODING 87
SWIDTH 281 0
DWIDTH 18 0
BBX 16 28 0 0
BITMAP
F00F
F00F
F00F
F00F
F00F
F00F
F00F
F00F
F00F
F00F
F00F
F00F
F10F
F18F
F18F
F3CF
F3CF
F7EF
F7EF
FFFF
FFFF
FE7F
FE7F
FC3F
FC3F
F81F
F81F
F00F
ENDCHAR
STARTCHAR 0058
ENCODING 88
SWIDTH 281 0
DWIDTH 18 0
BBX 16 28 0 0
BITMAP
F00F
F00F
F00F
781E
781E
3C3C
3C3C
1E78
1E78
0FF0
0FF0
07E0
07E0
03C0
03C0
07E0
07E0
0FF0
0FF0
1E78
1E78
3C3C
3C3C
781E
781E
F00F
F00F
F00F
ENDCHAR
STARTCHAR 0059
ENCODING 89
SWIDTH 281 0
DWIDTH 18 0
BBX 16 28 0 0
BITMAP
F00F
F00F
F00F
781E
781E
3C3C
3C3C
1E78
1E78
0FF0
0FF0
07E0
07E0
03C0
03C0
03C0
03C0
03C0
03C0
03C0
03C0
03C0
03C0
03C0
03C0
03C0
03C0
03C0
ENDCHAR
STARTCHAR 005A
ENCODING 90
SWIDTH 281 0
DWIDTH 18 0
BBX 16 28 0 0
BITMAP
FFFF
FFFF
FFFF
FFFE
001E
003C
003C
0078
0078
00F0
00F0
01E0
01E0
03C0
03C0
0780
0780
0F00
0F00
1E00
1E00
3C00
3C00
7800
7FFF
FFFF
FFFF
FFFF
ENDCHAR
STARTCHAR 005B
ENCODING 91
SWIDTH 281 0
DWIDTH 18 0
BBX 8 36 4 -4
BITMAP
FF
FF
FF
FF
F0
F0
F0
F0
F0
F0
F0
F0
F0
F0
F0
F0
F0
F0
F0
F0
F0
F0
F0
F0
F0
F0
F0
F0
F0
F0
F0
F0
FF
FF
FF
FF
ENDCHAR
STARTCHAR 005C
ENCODING 92
SWIDTH 281 0
DWIDTH 18 0
BBX 16 28 0 0
BITMAP
F000
F000
F000
7800
7800
3C00
3C00
1E00
1E00
0F00
0F00
0780
0780
03C0
03C0
01E0
01E0
00F0
00F0
0078
0078
003C
003C
001E
001E
000F
000F
000F
ENDCHAR
STARTCHAR 005D
ENCODING 93
SWIDTH 281 0
DWIDTH 18 0
BBX 8 36 4 -4
BITMAP
FF
FF
FF
FF
0F
0F
0F
0F
0F
0F
0F
0F
0F
0F
0F
0F
0F
0F
0F
0F
0F
0F
0F
0F
0F
0F
0F
0F
0F
0F
0F
0F
FF
FF
FF
FF
ENDCHAR
STARTCHAR 005E
ENCODING 94
SWIDTH 281 0
DWIDTH 18 0
BBX 12 12 2 16
BITMAP
0400
0600
0600
0F00
0F00
1F80
1F80
39C0
39C0
70E0
70E0
E070
ENDCHAR
STARTCHAR 005F
ENCODING 95
SWIDTH 281 0
DWIDTH 18 0
BBX 16 4 0 -4
BITMAP
FFFF
FFFF
FFFF
FFFF
ENDCHAR
STARTCHAR 0060
ENCODING 96
SWIDTH 281 0
DWIDTH 18 0
BBX 8 10 4 18
BITMAP
E0
70
70
38
38
1C
1C
0E
0E
07
ENDCHAR
STARTCHAR 0061
ENCODING 97
SWIDTH 281 0
DWIDTH 18 0
BBX 16 20 0 0
BITMAP
1FEF
3FFF
7FFF
FFFF
FC3F
F81F
F00F
F00F
F00F
F00F
F00F
F00F
F00F
F00F
F81F
FC3F
FFFF
7FFF
3FFF
1FEF
ENDCHAR
STARTCHAR 0062
ENCODING 98
SWIDTH 281 0
DWIDTH 18 0
BBX 16 28 0 0
BITMAP
F000
F000
F000
F000
F000
F000
F000
F000
F7F8
FFFC
FFFE
FFFF
FC3F
F81F
F00F
F00F
F00F
F00F
F00F
F00F
F00F
F00F
F81F
FC3F
FFFF
FFFE
FFFC
F7F8
ENDCHAR
STARTCHAR 0063
ENCODING 99
SWIDTH 281 0
DWIDTH 18 0
BBX 16 20 0 0
BITMAP
1FF8
3FFC
7FFE
FFFF
FC3F
F81F
F00F
F000
F000
F000
F000
F000
F000
F00F
F81F
FC3F
FFFF
7FFE
3FFC
1FF8
ENDCHAR
STARTCHAR 0064
ENCODING 100
SWIDTH 281 0
DWIDTH 18 0
BBX 16 28 0 0
BITMAP
000F
000F
000F
000F
000F
000F
000F
000F
1FEF
3FFF
7FFF
FFFF
FC3F
F81F
F00F
F00F
F00F
F00F
F00F
F00F
F00F
F00F
F81F
FC3F
FFFF
7FFF
3FFF
1FEF
ENDCHAR
STARTCHAR 0065
ENCODING 101
SWIDTH 281 0
DWIDTH 18 0
BBX 16 20 0 0
BITMAP
1FF8
3FFC
7FFE
FFFF
FC3F
F81F
F00F
F00F
FFFF
FFFF
FFFF
FFFF
F000
F000
F81F
FC3F
FFFF
7FFE
3FFC
1FF8
ENDCHAR
STARTCHAR 0066
ENCODING 102
SWIDTH 281 0
DWIDTH 18 0
BBX 16 28 0 0
BITMAP
07F8
0FFC
1FFE
3FFF
3F3F
3E1F
3C00
3C00
FFFC
FFFC
FFFC
FFFC
3C00
3C00
3C00
3C00
3C00
3C00
3C00
3C00
3C00
3C00
3C00
3C00
3C00
3C00
3C00
3C00
ENDCHAR
STARTCHAR 0067
ENCODING 103
SWIDTH 281 0
DWIDTH 18 0
BBX 16 30 0 -10
BITMAP
1FEF
3FFF
7FFF
FFFF
FC3F
F81F
F00F
F00F
F00F
F00F
F00F
F00F
F00F
F00F
F81F
FC3F
FFFF
7FFF
3FFF
1FEF
000F
000F
F00F
F00F
F81F
FC3F
FFFF
7FFE
3FFC
1FF8
ENDCHAR
STARTCHAR 0068
ENCODING 104
SWIDTH 281 0
DWIDTH 18 0
BBX 16 28 0 0
BITMAP
F000
F000
F000
F000
F000
F000
F000
F000
F7F8
FFFC
FFFE
FFFF
FC3F
F81F
F00F
F00F
F00F
F00F
F00F
F00F
F00F
F00F
F00F
F00F
F00F
F00F
F00F
F00F
ENDCHAR
STARTCHAR 0069
ENCODING 105
SWIDTH 281 0
DWIDTH 18 0
BBX 16 28 0 0
BITMAP
03C0
03C0
03C0
03C0
0000
0000
0000
0000
0FC0
0FC0
0FC0
0FC0
03C0
03C0
03C0
03C0
03C0
03C0
03C0
03C0
03C0
03C0
03C0
03C0
FFFF
FFFF
FFFF
FFFF
ENDCHAR
STARTCHAR 006A
ENCODING 106
SWIDTH 281 0
DWIDTH 18 0
BBX 16 38 0 -10
BITMAP
000F
000F
000F
000F
0000
0000
0000
0000
003F
003F
003F
003F
000F
000F
000F
000F
000F
000F
000F
000F
000F
000F
000F
000F
000F
000F
000F
000F
000F
000F
F00F
F00F
F81F
FC3F
FFFF
7FFE
3FFC
1FF8
ENDCHAR
STARTCHAR 006B
ENCODING 107
SWIDTH 281 0
DWIDTH 18 0
BBX 16 28 0 0
BITMAP
F000
F000
F000
F000
F000
F000
F000
F000
F00F
F00F
F00F
F00F
F01F
F07F
F1FE
F7F8
FFE0
FFE0
FFF8
F9FE
F07F
F01F
F00F
F00F
F00F
F00F
F00F
F00F
ENDCHAR
STARTCHAR 006C
ENCODING 108
SWIDTH 281 0
DWIDTH 18 0
BBX 16 28 0 0
BITMAP
3FC0
3FC0
3FC0
3FC0
03C0
03C0
03C0
03C0
03C0
03C0
03C0
03C0
03C0
03C0
03C0
03C0
03C0
03C0
03C0
03C0
03C0
03C0
03C0
03C0
FFFF
FFFF
FFFF
FFFF
ENDCHAR
STARTCHAR 006D
ENCODING 109
SWIDTH 281 0
DWIDTH 18 0
BBX 16 20 0 0
BITMAP
F7F8
FFFC
FFFE
FFFF
FFFF
FFFF
F3CF
F3CF
F3CF
F3CF
F3CF
F3CF
F3CF
F3CF
F3CF
F3CF
F3CF
F3CF
F3CF
F3CF
ENDCHAR
STARTCHAR 006E
ENCODING 110
SWIDTH 281 0
DWIDTH 18 0
BBX 16 20 0 0
BITMAP
F7F8
FFFC
FFFE
FFFF
FC3F
F81F
F00F
F00F
F00F
F00F
F00F
F00F
F00F
F00F
F00F
F00F
F00F
F00F
F00F
F00F
ENDCHAR
STARTCHAR 006F
ENCODING 111
SWIDTH 281 0
DWIDTH 18 0
BBX 16 20 0 0
BITMAP
1FF8
3FFC
7FFE
FFFF
FC3F
F81F
F00F
F00F
F00F
F00F
F00F
F00F
F00F
F00F
F81F
FC3F
FFFF
7FFE
3FFC
1FF8
ENDCHAR
STARTCHAR 0070
ENCODING 112
SWIDTH 281 0
DWIDTH 18 0
BBX 16 30 0 -10
BITMAP
F7F8
FFFC
FFFE
FFFF
FC3F
F81F
F00F
F00F
F00F
F00F
F00F
F00F
F00F
F00F
F81F
FC3F
FFFF
FFFE
FFFC
F7F8
F000
F000
F000
F000
F000
F000
F000
F000
F000
F000
ENDCHAR
STARTCHAR 0071
ENCODING 113
SWIDTH 281 0
DWIDTH 18 0
BBX 16 30 0 -10
BITMAP
1FEF
3FFF
7FFF
FFFF
FC3F
F81F
F00F
F00F
F00F
F00F
F00F
F00F
F00F
F00F
F81F
FC3F
FFFF
7FFF
3FFF
1FEF
000F
000F
000F
000F
000F
000F
000F
000F
000F
000F
ENDCHAR
STARTCHAR 0072
ENCODING 114
SWIDTH 281 0
DWIDTH 18 0
BBX 16 20 0 0
BITMAP
F7F8
FFFC
FFFE
FFFF
FC3F
F81F
F00F
F000
F000
F000
F000
F000
F000
F000
F000
F000
F000
F000
F000
F000
ENDCHAR
STARTCHAR 0073
ENCODING 115
SWIDTH 281 0
DWIDTH 18 0
BBX 16 20 0 0
BITMAP
1FF8
3FFC
7FFE
FFFF
FC3F
F81F
F80F
FC00
FFF8
7FFC
3FFE
1FFF
003F
F01F
F81F
FC3F
FFFF
7FFE
3FFC
1FF8
ENDCHAR
STARTCHAR 0074
ENCODING 116
SWIDTH 281 0
DWIDTH 18 0
BBX 16 28 0 0
BITMAP
3C00
3C00
3C00
3C00
3C00
3C00
3C00
3C00
FFFC
FFFC
FFFC
FFFC
3C00
3C00
3C00
3C00
3C00
3C00
3C00
3C00
3C00
3C00
3E1F
3F3F
3FFF
1FFE
0FFC
07F8
ENDCHAR
STARTCHAR 0075
ENCODING 117
SWIDTH 281 0
DWIDTH 18 0
BBX 16 20 0 0
BITMAP
F00F
F00F
F00F
F00F
F00F
F00F
F00F
F00F
F00F
F00F
F00F
F00F
F00F
F00F
F81F
FC3F
FFFF
7FFF
3FFF
1FEF
ENDCHAR
STARTCHAR 0076
ENCODING 118
SWIDTH 281 0
DWIDTH 18 0
BBX 16 20 0 0
BITMAP
F00F
F00F
F00F
F00F
F00F
F00F
F00F
F00F
F00F
781E
781E
3C3C
3C3C
1E78
1E78
0FF0
0FF0
07E0
07E0
03C0
ENDCHAR
STARTCHAR 0077
ENCODING 119
SWIDTH 281 0
DWIDTH 18 0
BBX 16 20 0 0
BITMAP
F00F
F00F
F00F
F00F
F00F
F00F
F00F
F00F
F00F
F00F
F3CF
F3CF
F3CF
F3CF
FFFF
FFFF
FFFF
7FFE
3FFC
1E78
ENDCHAR
STARTCHAR 0078
ENCODING 120
SWIDTH 281 0
DWIDTH 18 0
BBX 16 20 0 0
BITMAP
F00F
F00F
F00F
F00F
F00F
F00F
F81F
FE7F
7FFE
1FF8
1FF8
7FFE
FE7F
F81F
F00F
F00F
F00F
F00F
F00F
F00F
ENDCHAR
STARTCHAR 0079
ENCODING 121
SWIDTH 281 0
DWIDTH 18 0
BBX 16 30 0 -10
BITMAP
F00F
F00F
F00F
F00F
F00F
F00F
F00F
F00F
F00F
781E
781E
3C3C
3C3C
1E78
1E78
0FF0
0FF0
07E0
07E0
03C0
03C0
0780
0780
0F00
0F00
1E00
1E00
3C00
3C00
7800
ENDCHAR
STARTCHAR 007A
ENCODING 122
SWIDTH 281 0
DWIDTH 18 0
BBX 16 20 0 0
BITMAP
FFFF
FFFF
FFFF
FFFF
003F
007F
00FE
01FC
03F8
07F0
0FE0
1FC0
3F80
7F00
FE00
FC00
FFFF
FFFF
FFFF
FFFF
ENDCHAR
STARTCHAR 007B
ENCODING 123
SWIDTH 281 0
DWIDTH 18 0
BBX 12 36 2 -4
BITMAP
01F0
03F0
07F0
0FF0
0FC0
0F80
0F00
0F00
0F00
0F00
0F00
0F00
0F00
0F00
0F00
0F00
1F00
7E00
FE00
1F00
0F00
0F00
0F00
0F00
0F00
0F00
0F00
0F00
0F00
0F00
0F80
0FC0
0FF0
07F0
03F0
01F0
ENDCHAR
STARTCHAR 007C
ENCODING 124
SWIDTH 281 0
DWIDTH 18 0
BBX 4 36 6 -4
BITMAP
F0
F0
F0
F0
F0
F0
F0
F0
F0
F0
F0
F0
F0
F0
F0
F0
F0
F0
F0
F0
F0
F0
F0
F0
F0
F0
F0
F0
F0
F0
F0
F0
F0
F0
F0
F0
ENDCHAR
STARTCHAR 007D
ENCODING 125
SWIDTH 281 0
DWIDTH 18 0
BBX 12 36 2 -4
BITMAP
F800
FC00
FE00
FF00
3F00
1F00
0F00
0F00
0F00
0F00
0F00
0F00
0F00
0F00
0F00
0F00
0F80
07E0
07F0
0F80
0F00
0F00
0F00
0F00
0F00
0F00
0F00
0F00
0F00
0F00
1F00
3F00
FF00
FE00
FC00
F800
ENDCHAR
STARTCHAR 007E
ENCODING 126
SWIDTH 281 0
DWIDTH 18 0
BBX 12 8 2 10
BITMAP
7870
FC70
FE70
FF70
EFF0
E7F0
E3F0
E1E0
ENDCHAR
STARTCHAR 00A1
ENCODING 161
SWIDTH 281 0
DWIDTH 18 0
BBX 4 28 6 -10
BITMAP
F0
F0
F0
F0
00
00
00
00
F0
F0
F0
F0
F0
F0
F0
F0
F0
F0
F0
F0
F0
F0
F0
F0
F0
F0
F0
F0
ENDCHAR
STARTCHAR 00A2
ENCODING 162
SWIDTH 281 0
DWIDTH 18 0
BBX 16 28 0 0
BITMAP
03C0
03C0
03C0
03C0
1FF8
3FFC
7FFE
FFFF
FFFF
FBDF
F3CF
F3C0
F3C0
F3C0
F3C0
F3C0
F3C0
F3CF
FBDF
FFFF
FFFF
7FFE
3FFC
1FF8
03C0
03C0
03C0
03C0
ENDCHAR
STARTCHAR 00A3
ENCODING 163
SWIDTH 281 0
DWIDTH 18 0
BBX 16 28 0 0
BITMAP
01F8
03FC
07FE
0FFF
0F9F
0F0F
0F00
0F00
0F00
0F00
0F00
0F00
3FF0
3FF0
3FF0
3FF0
0F00
0F00
0F00
0F00
1F00
3F00
7F00
FE00
FFFF
FFFF
FFFF
FFFF
ENDCHAR
STARTCHAR 00A4
ENCODING 164
SWIDTH 281 0
DWIDTH 18 0
BBX 16 16 0 6
BITMAP
6006
F00F
FFFF
7FFE
3FFC
3FFC
3E7C
3C3C
3C3C
3E7C
3FFC
3FFC
7FFE
FFFF
F00F
6006
ENDCHAR
STARTCHAR 00A5
ENCODING 165
SWIDTH 281 0
DWIDTH 18 0
BBX 16 28 0 0
BITMAP
F00F
781E
781E
3C3C
3C3C
1E78
1E78
0FF0
0FF0
07E0
07E0
03C0
3FFC
3FFC
3FFC
3FFC
03C0
03C0
03C0
3FFC
3FFC
3FFC
3FFC
03C0
03C0
03C0
03C0
03C0
ENDCHAR
STARTCHAR 00A6
ENCODING 166
SWIDTH 281 0
DWIDTH 18 0
BBX 4 36 6 -4
BITMAP
F0
F0
F0
F0
F0
F0
F0
F0
F0
F0
F0
F0
F0
F0
00
00
00
00
00
00
00
00
F0
F0
F0
F0
F0
F0
F0
F0
F0
F0
F0
F0
F0
F0
ENDCHAR
STARTCHAR 00A7
ENCODING 167
SWIDTH 281 0
DWIDTH 18 0
BBX 16 38 0 -10
BITMAP
1FF8
3FFC
7FFE
FFFF
FC3F
F81F
F00F
F000
F800
FC00
FE00
7F00
3FF8
3FFC
7FFE
FFFF
FC3F
F81F
F00F
F00F
F81F
FC3F
FFFF
7FFE
3FFC
1FFC
00FE
007F
003F
001F
000F
F00F
F81F
FC3F
FFFF
7FFE
3FFC
1FF8
ENDCHAR
STARTCHAR 00A8
ENCODING 168
SWIDTH 281 0
DWIDTH 18 0
BBX 12 4 2 24
BITMAP
F0F0
F0F0
F0F0
F0F0
ENDCHAR
STARTCHAR 00A9
ENCODING 169
SWIDTH 281 0
DWIDTH 18 0
BBX 16 22 0 6
BITMAP
1FF8
3FFC
781E
F00F
E7E7
CFF3
CE73
CC33
CC03
CC03
CC03
CC03
CC03
CC03
CC33
CE73
CFF3
E7E7
F00F
781E
3FFC
1FF8
ENDCHAR
STARTCHAR 00AC
ENCODING 172
SWIDTH 281 0
DWIDTH 18 0
BBX 16 8 0 8
BITMAP
FFFF
FFFF
FFFF
FFFF
000F
000F
000F
000F
ENDCHAR
STARTCHAR 00AD
ENCODING 173
SWIDTH 281 0
DWIDTH 18 0
BBX 8 4 4 12
BITMAP
FF
FF
FF
FF
ENDCHAR
STARTCHAR 00AE
ENCODING 174
SWIDTH 281 0
DWIDTH 18 0
BBX 16 22 0 6
BITMAP
1FF8
3FFC
781E
F00F
EFE7
CFF3
CC73
CC33
CC33
CC73
CFF3
CFE3
CCC3
CC63
CC63
CC33
CC33
EC37
F00F
781E
3FFC
1FF8
ENDCHAR
STARTCHAR 00AF
ENCODING 175
SWIDTH 281 0
DWIDTH 18 0
BBX 12 4 2 24
BITMAP
FFF0
FFF0
FFF0
FFF0
ENDCHAR
STARTCHAR 00B0
ENCODING 176
SWIDTH 281 0
DWIDTH 18 0
BBX 8 8 4 20
BITMAP
7E
FF
E7
C3
C3
E7
FF
7E
ENDCHAR
STARTCHAR 00B1
ENCODING 177
SWIDTH 281 0
DWIDTH 18 0
BBX 16 24 0 2
BITMAP
03C0
03C0
03C0
03C0
03C0
03C0
FFFF
FFFF
FFFF
FFFF
03C0
03C0
03C0
03C0
03C0
03C0
0000
0000
0000
0000
FFFF
FFFF
FFFF
FFFF
ENDCHAR
STARTCHAR 00B4
ENCODING 180
SWIDTH 281 0
DWIDTH 18 0
BBX 8 10 4 18
BITMAP
07
0E
0E
1C
1C
38
38
70
70
E0
ENDCHAR
STARTCHAR 00B5
ENCODING 181
SWIDTH 281 0
DWIDTH 18 0
BBX 16 30 0 -10
BITMAP
F00F
F00F
F00F
F00F
F00F
F00F
F00F
F00F
F00F
F00F
F00F
F00F
F01F
F03F
F87F
FCFF
FFFF
FFEF
FFCF
F78F
F000
F000
F000
F000
F000
F000
F000
F000
F000
F000
ENDCHAR
STARTCHAR 00B6
ENCODING 182
SWIDTH 281 0
DWIDTH 18 0
BBX 16 38 0 -10
BITMAP
1FFF
3FFF
7FFF
FFFF
FFCF
FFCF
FFCF
FFCF
FFCF
FFCF
FFCF
FFCF
FFCF
7FCF
3FCF
1FCF
03CF
03CF
03CF
03CF
03CF
03CF
03CF
03CF
03CF
03CF
03CF
03CF
03CF
03CF
03CF
03CF
03CF
03CF
03CF
03CF
03CF
03CF
ENDCHAR
STARTCHAR 00B7
ENCODING 183
SWIDTH 281 0
DWIDTH 18 0
BBX 8 8 4 10
BITMAP
FF
FF
FF
FF
FF
FF
FF
FF
ENDCHAR
STARTCHAR 00B8
ENCODING 184
SWIDTH 281 0
DWIDTH 18 0
BBX 8 7 4 -7
BITMAP
3C
3E
1F
0F
FF
FF
FE
ENDCHAR
STARTCHAR 00BF
ENCODING 191
SWIDTH 281 0
DWIDTH 18 0
BBX 16 28 0 -10
BITMAP
03C0
03C0
03C0
03C0
0000
0000
0000
0000
03C0
03C0
03C0
03C0
07C0
0FC0
1FC0
3F80
7F00
FE00
FC00
F800
F00F
F00F
F81F
FC3F
FFFF
7FFE
3FFC
1FF8
ENDCHAR
STARTCHAR 00C0
ENCODING 192
SWIDTH 281 0
DWIDTH 18 0
BBX 16 42 0 0
BITMAP
0E00
0700
0700
0380
0380
01C0
01C0
00E0
00E0
0070
0000
0000
0000
0000
1FF8
3FFC
7FFE
FFFF
FC3F
F81F
F00F
F00F
F00F
F00F
F00F
F00F
FFFF
FFFF
FFFF
FFFF
F00F
F00F
F00F
F00F
F00F
F00F
F00F
F00F
F00F
F00F
F00F
F00F
ENDCHAR
STARTCHAR 00C1
ENCODING 193
SWIDTH 281 0
DWIDTH 18 0
BBX 16 42 0 0
BITMAP
0070
00E0
00E0
01C0
01C0
0380
0380
0700
0700
0E00
0000
0000
0000
0000
1FF8
3FFC
7FFE
FFFF
FC3F
F81F
F00F
F00F
F00F
F00F
F00F
F00F
FFFF
FFFF
FFFF
FFFF
F00F
F00F
F00F
F00F
F00F
F00F
F00F
F00F
F00F
F00F
F00F
F00F
ENDCHAR
STARTCHAR 00C2
ENCODING 194
SWIDTH 281 0
DWIDTH 18 0
BBX 16 42 0 0
BITMAP
0100
0180
0180
03C0
03C0
07E0
07E0
0E70
0E70
1C38
0000
0000
0000
0000
1FF8
3FFC
7FFE
FFFF
FC3F
F81F
F00F
F00F
F00F
F00F
F00F
F00F
FFFF
FFFF
FFFF
FFFF
F00F
F00F
F00F
F00F
F00F
F00F
F00F
F00F
F00F
F00F
F00F
F00F
ENDCHAR
STARTCHAR 00C3
ENCODING 195
SWIDTH 281 0
DWIDTH 18 0
BBX 16 40 0 0
BITMAP
1E1C
3F1C
3F9C
3FDC
3BFC
39FC
38FC
3878
0000
0000
0000
0000
1FF8
3FFC
7FFE
FFFF
FC3F
F81F
F00F
F00F
F00F
F00F
F00F
F00F
FFFF
FFFF
FFFF
FFFF
F00F
F00F
F00F
F00F
F00F
F00F
F00F
F00F
F00F
F00F
F00F
F00F
ENDCHAR
STARTCHAR 00C4
ENCODING 196
SWIDTH 281 0
DWIDTH 18 0
BBX 16 36 0 0
BITMAP
3C3C
3C3C
3C3C
3C3C
0000
0000
0000
0000
1FF8
3FFC
7FFE
FFFF
FC3F
F81F
F00F
F00F
F00F
F00F
F00F
F00F
FFFF
FFFF
FFFF
FFFF
F00F
F00F
F00F
F00F
F00F
F00F
F00F
F00F
F00F
F00F
F00F
F00F
ENDCHAR
STARTCHAR 00C5
ENCODING 197
SWIDTH 281 0
DWIDTH 18 0
BBX 16 40 0 0
BITMAP
07E0
0FF0
0E70
0C30
0C30
0E70
0FF0
07E0
0000
0000
0000
0000
1FF8
3FFC
7FFE
FFFF
FC3F
F81F
F00F
F00F
F00F
F00F
F00F
F00F
FFFF
FFFF
FFFF
FFFF
F00F
F00F
F00F
F00F
F00F
F00F
F00F
F00F
F00F
F00F
F00F
F00F
ENDCHAR
STARTCHAR 00C7
ENCODING 199
SWIDTH 281 0
DWIDTH 18 0
BBX 16 35 0 -7
BITMAP
1FF8
3FFC
7FFE
FFFF
FC3F
F81F
F00F
F00F
F000
F000
F000
F000
F000
F000
F000
F000
F000
F000
F000
F000
F00F
F00F
F81F
FC3F
FFFF
7FFE
3FFC
1FF8
03C0
03E0
01F0
00F0
0FF0
0FF0
0FE0
ENDCHAR
STARTCHAR 00C8
ENCODING 200
SWIDTH 281 0
DWIDTH 18 0
BBX 16 42 0 0
BITMAP
0E00
0700
0700
0380
0380
01C0
01C0
00E0
00E0
0070
0000
0000
0000
0000
FFFF
FFFF
FFFF
FFFF
F000
F000
F000
F000
F000
F000
F000
F000
FFF0
FFF0
FFF0
FFF0
F000
F000
F000
F000
F000
F000
F000
F000
FFFF
FFFF
FFFF
FFFF
ENDCHAR
STARTCHAR 00C9
ENCODING 201
SWIDTH 281 0
DWIDTH 18 0
BBX 16 42 0 0
BITMAP
0070
00E0
00E0
01C0
01C0
0380
0380
0700
0700
0E00
0000
0000
0000
0000
FFFF
FFFF
FFFF
FFFF
F000
F000
F000
F000
F000
F000
F000
F000
FFF0
FFF0
FFF0
FFF0
F000
F000
F000
F000
F000
F000
F000
F000
FFFF
FFFF
FFFF
FFFF
ENDCHAR
STARTCHAR 00CA
ENCODING 202
SWIDTH 281 0
DWIDTH 18 0
BBX 16 42 0 0
BITMAP
0100
0180
0180
03C0
03C0
07E0
07E0
0E70
0E70
1C38
0000
0000
0000
0000
FFFF
FFFF
FFFF
FFFF
F000
F000
F000
F000
F000
F000
F000
F000
FFF0
FFF0
FFF0
FFF0
F000
F000
F000
F000
F000
F000
F000
F000
FFFF
FFFF
FFFF
FFFF
ENDCHAR
STARTCHAR 00CB
ENCODING 203
SWIDTH 281 0
DWIDTH 18 0
BBX 16 36 0 0
BITMAP
3C3C
3C3C
3C3C
3C3C
0000
0000
0000
0000
FFFF
FFFF
FFFF
FFFF
F000
F000
F000
F000
F000
F000
F000
F000
FFF0
FFF0
FFF0
FFF0
F000
F000
F000
F000
F000
F000
F000
F000
FFFF
FFFF
FFFF
FFFF
ENDCHAR
STARTCHAR 00CC
ENCODING 204
SWIDTH 281 0
DWIDTH 18 0
BBX 16 42 0 0
BITMAP
0E00
0700
0700
0380
0380
01C0
01C0
00E0
00E0
0070
0000
0000
0000
0000
FFFF
FFFF
FFFF
FFFF
03C0
03C0
03C0
03C0
03C0
03C0
03C0
03C0
03C0
03C0
03C0
03C0
03C0
03C0
03C0
03C0
03C0
03C0
03C0
03C0
FFFF
FFFF
FFFF
FFFF
ENDCHAR
STARTCHAR 00CD
ENCODING 205
SWIDTH 281 0
DWIDTH 18 0
BBX 16 42 0 0
BITMAP
0070
00E0
00E0
01C0
01C0
0380
0380
0700
0700
0E00
0000
0000
0000
0000
FFFF
FFFF
FFFF
FFFF
03C0
03C0
03C0
03C0
03C0
03C0
03C0
03C0
03C0
03C0
03C0
03C0
03C0
03C0
03C0
03C0
03C0
03C0
03C0
03C0
FFFF
FFFF
FFFF
FFFF
ENDCHAR
STARTCHAR 00CE
ENCODING 206
SWIDTH 281 0
DWIDTH 18 0
BBX 16 42 0 0
BITMAP
0100
0180
0180
03C0
03C0
07E0
07E0
0E70
0E70
1C38
0000
0000
0000
0000
FFFF
FFFF
FFFF
FFFF
03C0
03C0
03C0
03C0
03C0
03C0
03C0
03C0
03C0
03C0
03C0
03C0
03C0
03C0
03C0
03C0
03C0
03C0
03C0
03C0
FFFF
FFFF
FFFF
FFFF
ENDCHAR
STARTCHAR 00CF
ENCODING 207
SWIDTH 281 0
DWIDTH 18 0
BBX 16 36 0 0
BITMAP
3C3C
3C3C
3C3C
3C3C
0000
0000
0000
0000
FFFF
FFFF
FFFF
FFFF
03C0
03C0
03C0
03C0
03C0
03C0
03C0
03C0
03C0
03C0
03C0
03C0
03C0
03C0
03C0
03C0
03C0
03C0
03C0
03C0
FFFF
FFFF
FFFF
FFFF
ENDCHAR
STARTCHAR 00D0
ENCODING 208
SWIDTH 281 0
DWIDTH 18 0
BBX 16 28 0 0
BITMAP
3FE0
3FF0
3FF8
3FFC
3CFE
3C7F
3C3F
3C1F
3C0F
3C0F
3C0F
3C0F
FFCF
FFCF
FFCF
FFCF
3C0F
3C0F
3C0F
3C0F
3C1F
3C3F
3C7F
3CFE
3FFC
3FF8
3FF0
3FE0
ENDCHAR
STARTCHAR 00D1
ENCODING 209
SWIDTH 281 0
DWIDTH 18 0
BBX 16 40 0 0
BITMAP
1E1C
3F1C
3F9C
3FDC
3BFC
39FC
38FC
3878
0000
0000
0000
0000
E00F
F00F
F00F
F80F
F80F
FC0F
FC0F
FE0F
FE0F
FF0F
FF0F
F78F
F78F
F3CF
F3CF
F1EF
F1EF
F0FF
F0FF
F07F
F07F
F03F
F03F
F01F
F01F
F00F
F00F
F007
ENDCHAR
STARTCHAR 00D2
ENCODING 210
SWIDTH 281 0
DWIDTH 18 0
BBX 16 42 0 0
BITMAP
0E00
0700
0700
0380
0380
01C0
01C0
00E0
00E0
0070
0000
0000
0000
0000
1FF8
3FFC
7FFE
FFFF
FC3F
F81F
F00F
F00F
F00F
F00F
F00F
F00F
F00F
F00F
F00F
F00F
F00F
F00F
F00F
F00F
F00F
F00F
F81F
FC3F
FFFF
7FFE
3FFC
1FF8
ENDCHAR
STARTCHAR 00D3
ENCODING 211
SWIDTH 281 0
DWIDTH 18 0
BBX 16 42 0 0
BITMAP
0070
00E0
00E0
01C0
01C0
0380
0380
0700
0700
0E00
0000
0000
0000
0000
1FF8
3FFC
7FFE
FFFF
FC3F
F81F
F00F
F00F
F00F
F00F
F00F
F00F
F00F
F00F
F00F
F00F
F00F
F00F
F00F
F00F
F00F
F00F
F81F
FC3F
FFFF
7FFE
3FFC
1FF8
ENDCHAR
STARTCHAR 00D4
ENCODING 212
SWIDTH 281 0
DWIDTH 18 0
BBX 16 42 0 0
BITMAP
0100
0180
0180
03C0
03C0
07E0
07E0
0E70
0E70
1C38
0000
0000
0000
0000
1FF8
3FFC
7FFE
FFFF
FC3F
F81F
F00F
F00F
F00F
F00F
F00F
F00F
F00F
F00F
F00F
F00F
F00F
F00F
F00F
F00F
F00F
F00F
F81F
FC3F
FFFF
7FFE
3FFC
1FF8
ENDCHAR
STARTCHAR 00D5
ENCODING 213
SWIDTH 281 0
DWIDTH 18 0
BBX 16 40 0 0
BITMAP
1E1C
3F1C
3F9C
3FDC
3BFC
39FC
38FC
3878
0000
0000
0000
0000
1FF8
3FFC
7FFE
FFFF
FC3F
F81F
F00F
F00F
F00F
F00F
F00F
F00F
F00F
F00F
F00F
F00F
F00F
F00F
F00F
F00F
F00F
F00F
F81F
FC3F
FFFF
7FFE
3FFC
1FF8
ENDCHAR
STARTCHAR 00D6
ENCODING 214
SWIDTH 281 0
DWIDTH 18 0
BBX 16 36 0 0
BITMAP
3C3C
3C3C
3C3C
3C3C
0000
0000
0000
0000
1FF8
3FFC
7FFE
FFFF
FC3F
F81F
F00F
F00F
F00F
F00F
F00F
F00F
F00F
F00F
F00F
F00F
F00F
F00F
F00F
F00F
F00F
F00F
F81F
FC3F
FFFF
7FFE
3FFC
1FF8
ENDCHAR
STARTCHAR 00D7
ENCODING 215
SWIDTH 281 0
DWIDTH 18 0
BBX 12 16 2 6
BITMAP
F0F0
79E0
79E0
3FC0
3FC0
1F80
1F80
0F00
0F00
1F80
1F80
3FC0
3FC0
79E0
79E0
F0F0
ENDCHAR
STARTCHAR 00D8
ENCODING 216
SWIDTH 281 0
DWIDTH 18 0
BBX 16 28 0 0
BITMAP
1FF8
3FFC
7FFE
FFFF
FC1F
F83F
F03F
F07F
F07F
F0FF
F0FF
F1EF
F1EF
F3CF
F3CF
F78F
F78F
FF0F
FF0F
FE0F
FE0F
FC0F
FC1F
F83F
FFFF
7FFE
3FFC
1FF8
ENDCHAR
STARTCHAR 00D9
ENCODING 217
SWIDTH 281 0
DWIDTH 18 0
BBX 16 42 0 0
BITMAP
0E00
0700
0700
0380
0380
01C0
01C0
00E0
00E0
0070
0000
0000
0000
0000
F00F
F00F
F00F
F00F
F00F
F00F
F00F
F00F
F00F
F00F
F00F
F00F
F00F
F00F
F00F
F00F
F00F
F00F
F00F
F00F
F00F
F00F
F81F
FC3F
FFFF
7FFE
3FFC
1FF8
ENDCHAR
STARTCHAR 00DA
ENCODING 218
SWIDTH 281 0
DWIDTH 18 0
BBX 16 42 0 0
BITMAP
0070
00E0
00E0
01C0
01C0
0380
0380
0700
0700
0E00
0000
0000
0000
0000
F00F
F00F
F00F
F00F
F00F
F00F
F00F
F00F
F00F
F00F
F00F
F00F
F00F
F00F
F00F
F00F
F00F
F00F
F00F
F00F
F00F
F00F
F81F
FC3F
FFFF
7FFE
3FFC
1FF8
ENDCHAR
STARTCHAR 00DB
ENCODING 219
SWIDTH 281 0
DWIDTH 18 0
BBX 16 42 0 0
BITMAP
0100
0180
0180
03C0
03C0
07E0
07E0
0E70
0E70
1C38
0000
0000
0000
0000
F00F
F00F
F00F
F00F
F00F
F00F
F00F
F00F
F00F
F00F
F00F
F00F
F00F
F00F
F00F
F00F
F00F
F00F
F00F
F00F
F00F
F00F
F81F
FC3F
FFFF
7FFE
3FFC
1FF8
ENDCHAR
STARTCHAR 00DC
ENCODING 220
SWIDTH 281 0
DWIDTH 18 0
BBX 16 36 0 0
BITMAP
3C3C
3C3C
3C3C
3C3C
0000
0000
0000
0000
F00F
F00F
F00F
F00F
F00F
F00F
F00F
F00F
F00F
F00F
F00F
F00F
F00F
F00F
F00F
F00F
F00F
F00F
F00F
F00F
F00F
F00F
F81F
FC3F
FFFF
7FFE
3FFC
1FF8
ENDCHAR
STARTCHAR 00DD
ENCODING 221
SWIDTH 281 0
DWIDTH 18 0
BBX 16 42 0 0
BITMAP
0070
00E0
00E0
01C0
01C0
0380
0380
0700
0700
0E00
0000
0000
0000
0000
F00F
F00F
F00F
781E
781E
3C3C
3C3C
1E78
1E78
0FF0
0FF0
07E0
07E0
03C0
03C0
03C0
03C0
03C0
03C0
03C0
03C0
03C0
03C0
03C0
03C0
03C0
03C0
03C0
ENDCHAR
STARTCHAR 00DE
ENCODING 222
SWIDTH 281 0
DWIDTH 18 0
BBX 16 28 0 0
BITMAP
F000
F000
F000
F000
F000
F000
F7F8
FFFC
FFFE
FFFF
FC3F
F81F
F00F
F00F
F00F
F00F
F00F
F00F
F81F
FC3F
FFFF
FFFE
FFFC
F7F8
F000
F000
F000
F000
ENDCHAR
STARTCHAR 00DF
ENCODING 223
SWIDTH 281 0
DWIDTH 18 0
BBX 16 28 0 0
BITMAP
1FE0
3FF0
7FF8
FFFC
FCFC
F87C
F07C
F0FC
F1FC
F3F8
F3F0
F3E0
F3E0
F3F0
F3F8
F1FC
F0FE
F07F
F03F
F01F
F00F
F00F
F01F
F23F
F3FF
F3FE
F3FC
F1F8
ENDCHAR
STARTCHAR 00E0
ENCODING 224
SWIDTH 281 0
DWIDTH 18 0
BBX 16 34 0 0
BITMAP
0E00
0700
0700
0380
0380
01C0
01C0
00E0
00E0
0070
0000
0000
0000
0000
1FEF
3FFF
7FFF
FFFF
FC3F
F81F
F00F
F00F
F00F
F00F
F00F
F00F
F00F
F00F
F81F
FC3F
FFFF
7FFF
3FFF
1FEF
ENDCHAR
STARTCHAR 00E1
ENCODING 225
SWIDTH 281 0
DWIDTH 18 0
BBX 16 34 0 0
BITMAP
0070
00E0
00E0
01C0
01C0
0380
0380
0700
0700
0E00
0000
0000
0000
0000
1FEF
3FFF
7FFF
FFFF
FC3F
F81F
F00F
F00F
F00F
F00F
F00F
F00F
F00F
F00F
F81F
FC3F
FFFF
7FFF
3FFF
1FEF
ENDCHAR
STARTCHAR 00E2
ENCODING 226
SWIDTH 281 0
DWIDTH 18 0
BBX 16 34 0 0
BITMAP
0100
0180
0180
03C0
03C0
07E0
07E0
0E70
0E70
1C38
0000
0000
0000
0000
1FEF
3FFF
7FFF
FFFF
FC3F
F81F
F00F
F00F
F00F
F00F
F00F
F00F
F00F
F00F
F81F
FC3F
FFFF
7FFF
3FFF
1FEF
ENDCHAR
STARTCHAR 00E3
ENCODING 227
SWIDTH 281 0
DWIDTH 18 0
BBX 16 32 0 0
BITMAP
1E1C
3F1C
3F9C
3FDC
3BFC
39FC
38FC
3878
0000
0000
0000
0000
1FEF
3FFF
7FFF
FFFF
FC3F
F81F
F00F
F00F
F00F
F00F
F00F
F00F
F00F
F00F
F81F
FC3F
FFFF
7FFF
3FFF
1FEF
ENDCHAR
STARTCHAR 00E4
ENCODING 228
SWIDTH 281 0
DWIDTH 18 0
BBX 16 28 0 0
BITMAP
3C3C
3C3C
3C3C
3C3C
0000
0000
0000
0000
1FEF
3FFF
7FFF
FFFF
FC3F
F81F
F00F
F00F
F00F
F00F
F00F
F00F
F00F
F00F
F81F
FC3F
FFFF
7FFF
3FFF
1FEF
ENDCHAR
STARTCHAR 00E5
ENCODING 229
SWIDTH 281 0
DWIDTH 18 0
BBX 16 32 0 0
BITMAP
07E0
0FF0
0E70
0C30
0C30
0E70
0FF0
07E0
0000
0000
0000
0000
1FEF
3FFF
7FFF
FFFF
FC3F
F81F
F00F
F00F
F00F
F00F
F00F
F00F
F00F
F00F
F81F
FC3F
FFFF
7FFF
3FFF
1FEF
ENDCHAR
STARTCHAR 00E7
ENCODING 231
SWIDTH 281 0
DWIDTH 18 0
BBX 16 27 0 -7
BITMAP
1FF8
3FFC
7FFE
FFFF
FC3F
F81F
F00F
F000
F000
F000
F000
F000
F000
F00F
F81F
FC3F
FFFF
7FFE
3FFC
1FF8
03C0
03E0
01F0
00F0
0FF0
0FF0
0FE0
ENDCHAR
STARTCHAR 00E8
ENCODING 232
SWIDTH 281 0
DWIDTH 18 0
BBX 16 34 0 0
BITMAP
0E00
0700
0700
0380
0380
01C0
01C0
00E0
00E0
0070
0000
0000
0000
0000
1FF8
3FFC
7FFE
FFFF
FC3F
F81F
F00F
F00F
FFFF
FFFF
FFFF
FFFF
F000
F000
F81F
FC3F
FFFF
7FFE
3FFC
1FF8
ENDCHAR
STARTCHAR 00E9
ENCODING 233
SWIDTH 281 0
DWIDTH 18 0
BBX 16 34 0 0
BITMAP
0070
00E0
00E0
01C0
01C0
0380
0380
0700
0700
0E00
0000
0000
0000
0000
1FF8
3FFC
7FFE
FFFF
FC3F
F81F
F00F
F00F
FFFF
FFFF
FFFF
FFFF
F000
F000
F81F
FC3F
FFFF
7FFE
3FFC
1FF8
ENDCHAR
STARTCHAR 00EA
ENCODING 234
SWIDTH 281 0
DWIDTH 18 0
BBX 16 34 0 0
BITMAP
0100
0180
0180
03C0
03C0
07E0
07E0
0E70
0E70
1C38
0000
0000
0000
0000
1FF8
3FFC
7FFE
FFFF
FC3F
F81F
F00F
F00F
FFFF
FFFF
FFFF
FFFF
F000
F000
F81F
FC3F
FFFF
7FFE
3FFC
1FF8
ENDCHAR
STARTCHAR 00EB
ENCODING 235
SWIDTH 281 0
DWIDTH 18 0
BBX 16 28 0 0
BITMAP
3C3C
3C3C
3C3C
3C3C
0000
0000
0000
0000
1FF8
3FFC
7FFE
FFFF
FC3F
F81F
F00F
F00F
FFFF
FFFF
FFFF
FFFF
F000
F000
F81F
FC3F
FFFF
7FFE
3FFC
1FF8
ENDCHAR
STARTCHAR 00EC
ENCODING 236
SWIDTH 281 0
DWIDTH 18 0
BBX 16 34 0 0
BITMAP
0E00
0700
0700
0380
0380
01C0
01C0
00E0
00E0
0070
0000
0000
0000
0000
0FC0
0FC0
0FC0
0FC0
03C0
03C0
03C0
03C0
03C0
03C0
03C0
03C0
03C0
03C0
03C0
03C0
FFFF
FFFF
FFFF
FFFF
ENDCHAR
STARTCHAR 00ED
ENCODING 237
SWIDTH 281 0
DWIDTH 18 0
BBX 16 34 0 0
BITMAP
0070
00E0
00E0
01C0
01C0
0380
0380
0700
0700
0E00
0000
0000
0000
0000
0FC0
0FC0
0FC0
0FC0
03C0
03C0
03C0
03C0
03C0
03C0
03C0
03C0
03C0
03C0
03C0
03C0
FFFF
FFFF
FFFF
FFFF
ENDCHAR
STARTCHAR 00EE
ENCODING 238
SWIDTH 281 0
DWIDTH 18 0
BBX 16 34 0 0
BITMAP
0100
0180
0180
03C0
03C0
07E0
07E0
0E70
0E70
1C38
0000
0000
0000
0000
0FC0
0FC0
0FC0
0FC0
03C0
03C0
03C0
03C0
03C0
03C0
03C0
03C0
03C0
03C0
03C0
03C0
FFFF
FFFF
FFFF
FFFF
ENDCHAR
STARTCHAR 00EF
ENCODING 239
SWIDTH 281 0
DWIDTH 18 0
BBX 16 28 0 0
BITMAP
3C3C
3C3C
3C3C
3C3C
0000
0000
0000
0000
0FC0
0FC0
0FC0
0FC0
03C0
03C0
03C0
03C0
03C0
03C0
03C0
03C0
03C0
03C0
03C0
03C0
FFFF
FFFF
FFFF
FFFF
ENDCHAR
STARTCHAR 00F0
ENCODING 240
SWIDTH 281 0
DWIDTH 18 0
BBX 16 30 0 0
BITMAP
0400
1E00
3E10
1F78
1FF8
0FFC
1FF8
7FE0
FFC0
7FE0
7BE0
21F0
01F0
00F8
1FF8
3FFC
7FFC
FFFE
FC3E
F81F
F01F
F00F
F00F
F00F
F81F
FC3F
FFFF
7FFE
3FFC
1FF8
ENDCHAR
STARTCHAR 00F1
ENCODING 241
SWIDTH 281 0
DWIDTH 18 0
BBX 16 32 0 0
BITMAP
1E1C
3F1C
3F9C
3FDC
3BFC
39FC
38FC
3878
0000
0000
0000
0000
F7F8
FFFC
FFFE
FFFF
FC3F
F81F
F00F
F00F
F00F
F00F
F00F
F00F
F00F
F00F
F00F
F00F
F00F
F00F
F00F
F00F
ENDCHAR
STARTCHAR 00F2
ENCODING 242
SWIDTH 281 0
DWIDTH 18 0
BBX 16 34 0 0
BITMAP
0E00
0700
0700
0380
0380
01C0
01C0
00E0
00E0
0070
0000
0000
0000
0000
1FF8
3FFC
7FFE
FFFF
FC3F
F81F
F00F
F00F
F00F
F00F
F00F
F00F
F00F
F00F
F81F
FC3F
FFFF
7FFE
3FFC
1FF8
ENDCHAR
STARTCHAR 00F3
ENCODING 243
SWIDTH 281 0
DWIDTH 18 0
BBX 16 34 0 0
BITMAP
0070
00E0
00E0
01C0
01C0
0380
0380
0700
0700
0E00
0000
0000
0000
0000
1FF8
3FFC
7FFE
FFFF
FC3F
F81F
F00F
F00F
F00F
F00F
F00F
F00F
F00F
F00F
F81F
FC3F
FFFF
7FFE
3FFC
1FF8
ENDCHAR
STARTCHAR 00F4
ENCODING 244
SWIDTH 281 0
DWIDTH 18 0
BBX 16 34 0 0
BITMAP
0100
0180
0180
03C0
03C0
07E0
07E0
0E70
0E70
1C38
0000
0000
0000
0000
1FF8
3FFC
7FFE
FFFF
FC3F
F81F
F00F
F00F
F00F
F00F
F00F
F00F
F00F
F00F
F81F
FC3F
FFFF
7FFE
3FFC
1FF8
ENDCHAR
STARTCHAR 00F5
ENCODING 245
SWIDTH 281 0
DWIDTH 18 0
BBX 16 32 0 0
BITMAP
1E1C
3F1C
3F9C
3FDC
3BFC
39FC
38FC
3878
0000
0000
0000
0000
1FF8
3FFC
7FFE
FFFF
FC3F
F81F
F00F
F00F
F00F
F00F
F00F
F00F
F00F
F00F
F81F
FC3F
FFFF
7FFE
3FFC
1FF8
ENDCHAR
STARTCHAR 00F6
ENCODING 246
SWIDTH 281 0
DWIDTH 18 0
BBX 16 28 0 0
BITMAP
3C3C
3C3C
3C3C
3C3C
0000
0000
0000
0000
1FF8
3FFC
7FFE
FFFF
FC3F
F81F
F00F
F00F
F00F
F00F
F00F
F00F
F00F
F00F
F81F
FC3F
FFFF
7FFE
3FFC
1FF8
ENDCHAR
STARTCHAR 00F7
ENCODING 247
SWIDTH 281 0
DWIDTH 18 0
BBX 16 20 0 4
BITMAP
03C0
03C0
03C0
03C0
0000
0000
0000
0000
FFFF
FFFF
FFFF
FFFF
0000
0000
0000
0000
03C0
03C0
03C0
03C0
ENDCHAR
STARTCHAR 00F8
ENCODING 248
SWIDTH 281 0
DWIDTH 18 0
BBX 16 20 0 0
BITMAP
1FF8
3FFC
7FFE
FFFF
FC7F
F8FF
F0FF
F1EF
F1EF
F3CF
F3CF
F78F
F78F
FF0F
FF1F
FE3F
FFFF
7FFE
3FFC
1FF8
ENDCHAR
STARTCHAR 00F9
ENCODING 249
SWIDTH 281 0
DWIDTH 18 0
BBX 16 34 0 0
BITMAP
0E00
0700
0700
0380
0380
01C0
01C0
00E0
00E0
0070
0000
0000
0000
0000
F00F
F00F
F00F
F00F
F00F
F00F
F00F
F00F
F00F
F00F
F00F
F00F
F00F
F00F
F81F
FC3F
FFFF
7FFF
3FFF
1FEF
ENDCHAR
STARTCHAR 00FA
ENCODING 250
SWIDTH 281 0
DWIDTH 18 0
BBX 16 34 0 0
BITMAP
0070
00E0
00E0
01C0
01C0
0380
0380
0700
0700
0E00
0000
0000
0000
0000
F00F
F00F
F00F
F00F
F00F
F00F
F00F
F00F
F00F
F00F
F00F
F00F
F00F
F00F
F81F
FC3F
FFFF
7FFF
3FFF
1FEF
ENDCHAR
STARTCHAR 00FB
ENCODING 251
SWIDTH 281 0
DWIDTH 18 0
BBX 16 34 0 0
BITMAP
0100
0180
0180
03C0
03C0
07E0
07E0
0E70
0E70
1C38
0000
0000
0000
0000
F00F
F00F
F00F
F00F
F00F
F00F
F00F
F00F
F00F
F00F
F00F
F00F
F00F
F00F
F81F
FC3F
FFFF
7FFF
3FFF
1FEF
ENDCHAR
STARTCHAR 00FC
ENCODING 252
SWIDTH 281 0
DWIDTH 18 0
BBX 16 28 0 0
BITMAP
3C3C
3C3C
3C3C
3C3C
0000
0000
0000
0000
F00F
F00F
F00F
F00F
F00F
F00F
F00F
F00F
F00F
F00F
F00F
F00F
F00F
F00F
F81F
FC3F
FFFF
7FFF
3FFF
1FEF
ENDCHAR
STARTCHAR 00FD
ENCODING 253
SWIDTH 281 0
DWIDTH 18 0
BBX 16 44 0 -10
BITMAP
0070
00E0
00E0
01C0
01C0
0380
0380
0700
0700
0E00
0000
0000
0000
0000
F00F
F00F
F00F
F00F
F00F
F00F
F00F
F00F
F00F
781E
781E
3C3C
3C3C
1E78
1E78
0FF0
0FF0
07E0
07E0
03C0
03C0
0780
0780
0F00
0F00
1E00
1E00
3C00
3C00
7800
ENDCHAR
STARTCHAR 00FE
ENCODING 254
SWIDTH 281 0
DWIDTH 18 0
BBX 16 38 0 -10
BITMAP
F000
F000
F000
F000
F000
F000
F000
F000
F7F8
FFFC
FFFE
FFFF
FC3F
F81F
F00F
F00F
F00F
F00F
F00F
F00F
F00F
F00F
F81F
FC3F
FFFF
FFFE
FFFC
F7F8
F000
F000
F000
F000
F000
F000
F000
F000
F000
F000
ENDCHAR
STARTCHAR 00FF
ENCODING 255
SWIDTH 281 0
DWIDTH 18 0
BBX 16 38 0 -10
BITMAP
3C3C
3C3C
3C3C
3C3C
0000
0000
0000
0000
F00F
F00F
F00F
F00F
F00F
F00F
F00F
F00F
F00F
781E
781E
3C3C
3C3C
1E78
1E78
0FF0
0FF0
07E0
07E0
03C0
03C0
0780
0780
0F00
0F00
1E00
1E00
3C00
3C00
7800
ENDCHAR
STARTCHAR 0153
ENCODING 339
SWIDTH 281 0
DWIDTH 18 0
BBX 16 20 0 0
BITMAP
1E78
3FFC
7FFE
FFFF
FFFF
FFFF
F3CF
F3CF
F3FF
F3FF
F3FF
F3FF
F3C0
F3C0
FFFF
FFFF
FFFF
7FFE
3FFC
1E78
ENDCHAR
STARTCHAR 0160
ENCODING 352
SWIDTH 281 0
DWIDTH 18 0
BBX 16 42 0 0
BITMAP
1C38
0E70
0E70
07E0
07E0
03C0
03C0
0180
0180
0100
0000
0000
0000
0000
1FF8
3FFC
7FFE
FFFF
FC3F
F81F
F00F
F00F
F000
F000
F800
FC00
FFF8
7FFC
3FFE
1FFF
003F
001F
000F
000F
F00F
F00F
F81F
FC3F
FFFF
7FFE
3FFC
1FF8
ENDCHAR
STARTCHAR 0161
ENCODING 353
SWIDTH 281 0
DWIDTH 18 0
BBX 16 34 0 0
BITMAP
1C38
0E70
0E70
07E0
07E0
03C0
03C0
0180
0180
0100
0000
0000
0000
0000
1FF8
3FFC
7FFE
FFFF
FC3F
F81F
F80F
FC00
FFF8
7FFC
3FFE
1FFF
003F
F01F
F81F
FC3F
FFFF
7FFE
3FFC
1FF8
ENDCHAR
STARTCHAR 0178
ENCODING 376
SWIDTH 281 0
DWIDTH 18 0
BBX 16 36 0 0
BITMAP
3C3C
3C3C
3C3C
3C3C
0000
0000
0000
0000
F00F
F00F
F00F
781E
781E
3C3C
3C3C
1E78
1E78
0FF0
0FF0
07E0
07E0
03C0
03C0
03C0
03C0
03C0
03C0
03C0
03C0
03C0
03C0
03C0
03C0
03C0
03C0
03C0
ENDCHAR
STARTCHAR 017D
ENCODING 381
SWIDTH 281 0
DWIDTH 18 0
BBX 16 42 0 0
BITMAP
1C38
0E70
0E70
07E0
07E0
03C0
03C0
0180
0180
0100
0000
0000
0000
0000
FFFF
FFFF
FFFF
FFFE
001E
003C
003C
0078
0078
00F0
00F0
01E0
01E0
03C0
03C0
0780
0780
0F00
0F00
1E00
1E00
3C00
3C00
7800
7FFF
FFFF
FFFF
FFFF
ENDCHAR
STARTCHAR 017E
ENCODING 382
SWIDTH 281 0
DWIDTH 18 0
BBX 16 34 0 0
BITMAP
1C38
0E70
0E70
07E0
07E0
03C0
03C0
0180
0180
0100
0000
0000
0000
0000
FFFF
FFFF
FFFF
FFFF
003F
007F
00FE
01FC
03F8
07F0
0FE0
1FC0
3F80
7F00
FE00
FC00
FFFF
FFFF
FFFF
FFFF
ENDCHAR
STARTCHAR 0192
ENCODING 402
SWIDTH 281 0
DWIDTH 18 0
BBX 16 10 0 18
BITMAP
FCC3
FCE7
30E7
30FF
30FF
30DB
30DB
30D3
30C3
30C3
ENDCHAR
STARTCHAR 2018
ENCODING 8216
SWIDTH 281 0
DWIDTH 18 0
BBX 4 10 6 18
BITMAP
10
30
30
60
60
C0
F0
F0
F0
F0
ENDCHAR
STARTCHAR 2019
ENCODING 8217
SWIDTH 281 0
DWIDTH 18 0
BBX 4 10 6 18
BITMAP
F0
F0
F0
F0
30
60
60
C0
C0
80
ENDCHAR
STARTCHAR 201C
ENCODING 8220
SWIDTH 281 0
DWIDTH 18 0
BBX 10 10 4 18
BITMAP
1040
30C0
30C0
6180
6180
C300
F3C0
F3C0
F3C0
F3C0
ENDCHAR
STARTCHAR 201D
ENCODING 8221
SWIDTH 281 0
DWIDTH 18 0
BBX 10 10 2 18
BITMAP
F3C0
F3C0
F3C0
F3C0
30C0
6180
6180
C300
C300
8200
ENDCHAR
STARTCHAR 2020
ENCODING 8224
SWIDTH 281 0
DWIDTH 18 0
BBX 12 38 2 -10
BITMAP
0F00
0F00
0F00
0F00
0F00
0F00
FFF0
FFF0
FFF0
FFF0
0F00
0F00
0F00
0F00
0F00
0F00
0F00
0F00
0F00
0F00
0F00
0F00
0F00
0F00
0F00
0F00
0F00
0F00
0F00
0F00
0F00
0F00
0F00
0F00
0F00
0F00
0F00
0F00
ENDCHAR
STARTCHAR 2022
ENCODING 8226
SWIDTH 281 0
DWIDTH 18 0
BBX 16 16 0 6
BITMAP
0100
0180
0180
1BD8
1FF8
0FF0
1FF8
7FFE
FFFF
1FF8
0FF0
1FF8
1BD8
0180
0180
0100
ENDCHAR
STARTCHAR 20AC
ENCODING 8364
SWIDTH 281 0
DWIDTH 18 0
BBX 16 28 0 0
BITMAP
01F8
03FC
07FE
0FFF
0F9F
0F0F
0F00
0F00
3FFE
7FFC
7FFC
FFF8
0F00
0F00
0F00
0F00
3FF8
7FF0
7FF0
FFE0
0F00
0F00
0F0F
0F9F
0FFF
07FE
03FC
01F8
ENDCHAR
STARTCHAR 2122
ENCODING 8482
SWIDTH 3218 0
DWIDTH 206 0
BBX 202 46 2 -4
BITMAP
FFFFFFFFFFFFFFFFFFFFFFFFFFFFFFFFFFFFFFFFFFFFFFFFFFC0
FFFFFFFFFFFFFFFFFFFFFFFFFFFFFFFFFFFFFFFFFFFFFFFFFFC0
C0000000000000000000000000000000000000000000000000C0
C0000000000000000000000000000000000000000000000000C0
C0000000000000000000000000000000000000000000000000C0
C0000000000000000000000000000000000000000000000000C0
C1E00E0000C0300003800003003033007800C00000C0000000C0
C3F01E0000C0300003C0000300303300FC00C00000C0000000C0
C330180000C0300003E0000000303300C400C00000C0000000C0
C330180000C030000370000000303300C000C00000C0000000C0
C3303E78D9F036330331B3631E303300C078D87878D8D878D0C0
C3F03EFCFDF03F330333F3F33F303F00F8FCFCFCFCFCFCFCF0C0
C3F018CCECC03B33033373B333303F007CC4ECCCC4ECECCCE0C0
C33018CCCCC03333033333333F3033000CC0CCFCC0CCCCFCC0C0
C33018CCCCC03333037333333F3033000CC0CCFCC0CCCCFCC0C0
C33018CCCCC03B3303E37333303033008CC4CCC0C4CCCCC0C0C0
C33018FCCCF03F3F03C3F3333F303360FCFCCCFCFCCCCCFCC0C0
C3301878CC70361E0381B3331E3033607878CC7878CCCC78C0C0
C0000000000000060000000000000000000000000000000000C0
C00000000000000C0000000000000000000000000000000000C0
C00000000000000C0000000000000000000000000000000000C0
C0000000000000180000000000000000000000000000000000C0
C0000000000000000000000000000000000000000000000000C0
C0000000000000000000000000000000000000000000000000C0
C0000000000000000000000000000000000000000000000000C0
C0000000000000000000000000000000000000000000000000C0
C0000000001C330000000000000000000000330E0000000000C0
C0000000003C330000000000000000000000330F0000000000C0
C00000000030330E0000C00003300003000033030000000000C0
C00000000030331E0000C00003300003000033030000000000C0
C0000000003000180000C00003300003000000030000000000C0
C0000000003000180000C00003300003000000030000000000C0
C00000000030003E78D9F1E1E331E1E7C78D00030000000000C0
C00000000030003EFCFDF3F3F333F3F7CFCF00030000000000C0
C000000000300018CCECC313333333130CCE00030000000000C0
C000000000300018CCCCC3033333F3030CCC00030000000000C0
C000000000300018CCCCC3033333F3030CCC00030000000000C0
C000000000300018CCCCC313333303130CCC00030000000000C0
C0000000003C0018FCCCF3F3F333F3F3CFCC000F0000000000C0
C0000000001C001878CC71E1E331E1E1C78C000E0000000000C0
C0000000000000000000000000000000000000000000000000C0
C0000000000000000000000000000000000000000000000000C0
C0000000000000000000000000000000000000000000000000C0
C0000000000000000000000000000000000000000000000000C0
FFFFFFFFFFFFFFFFFFFFFFFFFFFFFFFFFFFFFFFFFFFFFFFFFFC0
FFFFFFFFFFFFFFFFFFFFFFFFFFFFFFFFFFFFFFFFFFFFFFFFFFC0
ENDCHAR
ENDFONT
